<svg width="403" height="970" viewBox="0 0 403 970" fill="none" xmlns="http://www.w3.org/2000/svg">
<path d="M-109.697 452.333C-109.697 436.881 -97.176 417.945 -90.9717 405.013C-60.4046 341.301 -23.6758 280.601 13.4116 220.539C56.611 150.579 100.5 80.0328 154.487 17.7191C180.846 -12.7053 209.242 -40.6027 245.332 -59.2082C256.403 -64.9155 279.944 -78.3838 291.64 -65.7875C304.513 -51.9246 297.889 -24.8764 293.665 -9.86336C270.579 72.1866 228.72 150.796 186.118 224.082C112.754 350.289 21.9997 465.626 -45.6757 595.307C-85.1 670.852 -126.505 755.385 -129.688 842.284C-129.75 843.957 -132.439 884.818 -120.832 879.229C-111.314 874.646 -87.1917 847.084 -85.4046 845.067C-61.6644 818.28 -22.9401 770.969 -1.64493 744.606C66.094 660.748 131.407 574.986 197.759 490.038C250.343 422.715 301.7 351.323 363.001 291.393C366.108 288.355 382.377 270.568 390.583 276.21C401.336 283.603 392.085 312.006 389.951 320.241C378.64 363.868 358.516 405.126 338.455 445.248C308.221 505.715 274.865 564.568 242.043 623.648C232.231 641.309 75.6505 904.676 140.063 915.162C165.828 919.356 196.603 883.967 213.954 870.372C259.027 835.057 306.36 793.513 360.976 773.707C368.1 771.124 382.985 765.819 390.33 771.43C402.195 780.493 399.581 809.319 399.946 821.281C402.071 891.032 400.452 961.025 400.452 1030.81" stroke="#167265" stroke-width="3" stroke-linecap="round"/>
</svg>
